<?xml version="1.0" encoding="UTF-8" ?>
<!DOCTYPE svg PUBLIC "-//W3C//DTD SVG 1.1//EN" "http://www.w3.org/Graphics/SVG/1.1/DTD/svg11.dtd">
<svg xmlns="http://www.w3.org/2000/svg" xmlns:xlink="http://www.w3.org/1999/xlink" width="0" height="0">
  <defs>
    <clipPath id="clip-path">
      <rect id="Rectangle_199" data-name="Rectangle 199" width="48.005" height="68.1" fill="none" stroke="#a79d95" stroke-width="2"/>
    </clipPath>
    <clipPath id="clip-path-3">
      <rect id="Rectangle_101" data-name="Rectangle 101" width="37.759" height="55.444" fill="none" stroke="#a79d95" stroke-width="2"/>
    </clipPath>
    <clipPath id="clip-path-4">
      <rect id="Rectangle_101-2" data-name="Rectangle 101" width="32.323" height="40.402" fill="none" stroke="#a79d95" stroke-width="2"/>
    </clipPath>
    <clipPath id="clip-path-5">
      <rect id="Rectangle_100" data-name="Rectangle 100" width="34.987" height="38.79" fill="none" stroke="#a79d95" stroke-width="2"/>
    </clipPath>
    <clipPath id="clip-Agave-icons">
      <rect width="500" height="500"/>
    </clipPath>
  </defs>

    <symbol id="message" data-name="Group 6" viewBox="0 0 74 37">
      <g id="Group_164" data-name="Group 164" transform="translate(11 1)">
        <path id="Path_137" data-name="Path 137" d="M20.018,21.793V11.146a5.323,5.323,0,0,1,5.323-5.323h7.1A5.323,5.323,0,0,0,27.116.5H5.823A5.323,5.323,0,0,0,.5,5.823V18.244a5.323,5.323,0,0,0,5.323,5.323H7.6l-1.774,7.1,8.872-7.1h5.65A5.263,5.263,0,0,1,20.018,21.793Z" transform="translate(-0.5 -0.5)" fill="none" stroke="#a79d95" stroke-linecap="round" stroke-linejoin="round" stroke-width="2"/>
        <path id="Path_138" data-name="Path 138" d="M38.116,3.5H16.823A5.323,5.323,0,0,0,11.5,8.823V19.47a5.323,5.323,0,0,0,5.323,5.323H29.244l8.872,7.1-1.774-7.1h1.774a5.323,5.323,0,0,0,5.323-5.323V8.823A5.323,5.323,0,0,0,38.116,3.5Z" transform="translate(8.018 1.823)" fill="none" stroke="#a79d95" stroke-linecap="round" stroke-linejoin="round" stroke-width="2"/>
      </g>
    </symbol>
    <symbol id="click" data-name="sun" viewBox="0 0 48 90">
      <g transform="translate(0 9)">
        <g id="Group_185" data-name="Group 185" transform="translate(0.236 0.177)">
          <g id="Group_184" data-name="Group 184" transform="translate(0 0)" clip-path="url(#clip-path)">
            <line id="Line_88" data-name="Line 88" x1="4.56" transform="translate(3.082 21.36)" fill="none" stroke="#a79d95" stroke-linecap="round" stroke-linejoin="round" stroke-width="2"/>
            <line id="Line_89" data-name="Line 89" x1="4.56" transform="translate(41.842 21.36)" fill="none" stroke="#a79d95" stroke-linecap="round" stroke-linejoin="round" stroke-width="2"/>
            <line id="Line_90" data-name="Line 90" y1="4.56" transform="translate(25.882 0.84)" fill="none" stroke="#a79d95" stroke-linecap="round" stroke-linejoin="round" stroke-width="2"/>
          </g>
        </g>
        <line id="Line_91" data-name="Line 91" x1="3.224" y1="3.224" transform="translate(10.468 6.555)" fill="none" stroke="#a79d95" stroke-linecap="round" stroke-linejoin="round" stroke-width="2"/>
        <line id="Line_92" data-name="Line 92" y1="3.224" x2="3.224" transform="translate(37.875 8.168)" fill="none" stroke="#a79d95" stroke-linecap="round" stroke-linejoin="round" stroke-width="2"/>
        <g id="Group_187" data-name="Group 187" transform="translate(0.236 0.177)">
          <g id="Group_186" data-name="Group 186" transform="translate(0 0)" clip-path="url(#clip-path)">
            <path id="Path_536" data-name="Path 536" d="M27.86,31.3l5.447-2.5a5.921,5.921,0,0,1,7.6,1.2,2.759,2.759,0,0,1-.2,3.739L27.849,46.688a9.914,9.914,0,0,1-7.025,2.852H13.207C6.189,49.54.5,44.289.5,37.814V25.6a3.717,3.717,0,0,1,3.42-3.42,3.426,3.426,0,0,1,3.42,3.094V23.32a3.717,3.717,0,0,1,3.42-3.42,3.717,3.717,0,0,1,3.42,3.42V21.04a3.717,3.717,0,0,1,3.42-3.42,3.717,3.717,0,0,1,3.42,3.42V11.92A3.717,3.717,0,0,1,24.44,8.5a3.717,3.717,0,0,1,3.42,3.42V31.3" transform="translate(0.302 10.58)" fill="none" stroke="#a79d95" stroke-linecap="round" stroke-linejoin="round" stroke-width="2"/>
            <path id="Path_537" data-name="Path 537" d="M2.5,33.34V26.5H25.3v6.84" transform="translate(2.862 33.62)" fill="none" stroke="#a79d95" stroke-linecap="round" stroke-linejoin="round" stroke-width="2"/>
            <path id="Path_538" data-name="Path 538" d="M6.5,15.76a10.26,10.26,0,1,1,20.52,0" transform="translate(7.982 6.74)" fill="none" stroke="#a79d95" stroke-linecap="round" stroke-linejoin="round" stroke-width="2"/>
          </g>
        </g>
      </g>
    </symbol>
    <symbol id="click-above" data-name="Group 188"  viewBox="0 0 100 100">
      <g transform="translate(-180 -20)">
        <path id="Path_115" data-name="Path 115" d="M10.849,38.734H33.426a12.2,12.2,0,0,0,8.633-3.577L45.9,31.316a12.194,12.194,0,0,0,.4-16.829L37.158,4.439a3.442,3.442,0,0,0-4.871,0l-.014.014a3.442,3.442,0,0,0,0,4.871l.106.105L29.831,6.881a3.442,3.442,0,0,0-4.871,0l-.014.014a3.442,3.442,0,0,0,0,4.871l2.548,2.548-4.99-4.99a3.442,3.442,0,0,0-4.871,0l-.014.014a3.442,3.442,0,0,0,0,4.871l4.99,4.99L10.392,6.979a3.443,3.443,0,0,0-4.869,0l-.016.016a3.443,3.443,0,0,0,0,4.869L23.832,30.186l-11.8,1.924a4.223,4.223,0,0,0-3.626,4.181A2.443,2.443,0,0,0,10.849,38.734Z" transform="translate(209.527 64.151)" fill="none" stroke="#a79d95" stroke-linecap="round" stroke-linejoin="round" stroke-width="2"/>
        <path id="Path_116" data-name="Path 116" d="M19.158,6.261a9.756,9.756,0,1,0-12.894,12.9" transform="translate(205.712 61.358)" fill="none" stroke="#a79d95" stroke-linecap="round" stroke-linejoin="round" stroke-width="2"/>
        <path id="Path_1" data-name="Path 1" d="M931.6-2875.564l7.066-7.066,7.066,7.066" transform="translate(-709.219 2921.14)" fill="none" stroke="#a79d95" stroke-linecap="round" stroke-width="2"/>
        <path id="Path_2" data-name="Path 2" d="M931.6-2875.564l7.066-7.066,7.066,7.066" transform="translate(-709.219 2929.344)" fill="none" stroke="#a79d95" stroke-linecap="round" stroke-width="2"/>
      </g>
    </symbol>
    <symbol id="trophy-star" data-name="Group 7"  viewBox="0 0 59 85">
      <g transform="translate( 10 17)">
        <path id="Path_145" data-name="Path 145" d="M14.606,3.5l1.688,5.2h5.464l-4.421,3.211L19.025,17.1l-4.419-3.211L10.187,17.1l1.688-5.195L7.454,8.7h5.464Z" transform="translate(4.273 2.006)" fill="none" stroke="#a79d95" stroke-linecap="round" stroke-linejoin="round" stroke-width="2"/>
        <g id="Group_169" data-name="Group 169" transform="translate(0 0)">
          <g id="Group_168" data-name="Group 168" clip-path="url(#clip-path-3)">
            <path id="Path_146" data-name="Path 146" d="M19.5,2.5V16.659c0,1.5,6.293-1.85,6.293-5.009V2.5Z" transform="translate(11.179 1.433)" fill="none" stroke="#a79d95" stroke-linecap="round" stroke-linejoin="round" stroke-width="2"/>
            <path id="Path_147" data-name="Path 147" d="M6.793,2.5V16.659c0,1.5-6.293-1.85-6.293-5.009V2.5Z" transform="translate(0.287 1.433)" fill="none" stroke="#a79d95" stroke-linecap="round" stroke-linejoin="round" stroke-width="2"/>
            <path id="Path_148" data-name="Path 148" d="M17.086,27.246H15.513A11.013,11.013,0,0,1,4.5,16.233V.5H28.1V16.233A11.013,11.013,0,0,1,17.086,27.246Z" transform="translate(2.58 0.287)" fill="none" stroke="#a79d95" stroke-linecap="round" stroke-linejoin="round" stroke-width="2"/>
            <path id="Path_149" data-name="Path 149" d="M10.5,29.416H22.1a6,6,0,0,1,6,6v2.382H4.5V35.412A6,6,0,0,1,10.5,29.416Z" transform="translate(2.58 16.864)" fill="none" stroke="#a79d95" stroke-linecap="round" stroke-linejoin="round" stroke-width="2"/>
            <path id="Path_150" data-name="Path 150" d="M13.308,25.149h2.76a6,6,0,0,1,6,6v.717H7.312v-.717A6,6,0,0,1,13.308,25.149Z" transform="translate(4.192 14.417)" fill="none" stroke="#a79d95" stroke-linecap="round" stroke-linejoin="round" stroke-width="2"/>
            <line id="Line_86" data-name="Line 86" x2="1.573" y2="12.251" transform="translate(14.855 27.316)" fill="none" stroke="#a79d95" stroke-linecap="round" stroke-linejoin="round" stroke-width="2"/>
            <line id="Line_87" data-name="Line 87" x1="1.573" y2="12.251" transform="translate(21.33 27.316)" fill="none" stroke="#a79d95" stroke-linecap="round" stroke-linejoin="round" stroke-width="2"/>
          </g>
        </g>
      </g>
    </symbol>
    <symbol id="trophy" data-name="Group 189"  viewBox="0 0 54 64">
      <g transform="translate( 10 13)">
        <g id="Group_169-2" data-name="Group 169" transform="translate(0 0)">
          <g id="Group_168-2" data-name="Group 168" clip-path="url(#clip-path-4)">
            <path id="Path_146-2" data-name="Path 146" d="M19.5,2.5V12.818c0,1.093,5.387-1.348,5.387-3.65V2.5Z" transform="translate(6.763 0.366)" fill="none" stroke="#a79d95" stroke-linecap="round" stroke-linejoin="round" stroke-width="2"/>
            <path id="Path_147-2" data-name="Path 147" d="M5.887,2.5V12.818C5.887,13.911.5,11.47.5,9.168V2.5Z" transform="translate(0.173 0.366)" fill="none" stroke="#a79d95" stroke-linecap="round" stroke-linejoin="round" stroke-width="2"/>
            <path id="Path_148-2" data-name="Path 148" d="M15.274,19.99H13.928C8.721,19.99,4.5,16.4,4.5,11.965V.5H24.7V11.965C24.7,16.4,20.481,19.99,15.274,19.99Z" transform="translate(1.561 0.073)" fill="none" stroke="#a79d95" stroke-linecap="round" stroke-linejoin="round" stroke-width="2"/>
            <path id="Path_149-2" data-name="Path 149" d="M9.633,29.416h9.937c2.835,0,5.133,1.956,5.133,4.369v1.736H4.5V33.785C4.5,31.372,6.8,29.416,9.633,29.416Z" transform="translate(1.561 4.308)" fill="none" stroke="#a79d95" stroke-linecap="round" stroke-linejoin="round" stroke-width="2"/>
            <path id="Path_150-2" data-name="Path 150" d="M12.445,25.149h2.362c2.834,0,5.133,1.956,5.133,4.369v.523H7.312v-.523C7.312,27.1,9.61,25.149,12.445,25.149Z" transform="translate(2.536 3.683)" fill="none" stroke="#a79d95" stroke-linecap="round" stroke-linejoin="round" stroke-width="2"/>
            <line id="Line_86-2" data-name="Line 86" x2="1.347" y2="8.927" transform="translate(12.716 19.905)" fill="none" stroke="#a79d95" stroke-linecap="round" stroke-linejoin="round" stroke-width="2"/>
            <line id="Line_87-2" data-name="Line 87" x1="1.347" y2="8.927" transform="translate(18.26 19.905)" fill="none" stroke="#a79d95" stroke-linecap="round" stroke-linejoin="round" stroke-width="2"/>
          </g>
        </g>
      </g>
    </symbol>
    <symbol id="timer" data-name="Group 4"  viewBox="0 0 60 60">
      <g id="Group_147" data-name="Group 147" transform="translate(13 13)">
        <g id="Group_144" data-name="Group 144" transform="translate(14.862 0.646)">
          <g id="Group_148" data-name="Group 148">
            <path id="Path_124" data-name="Path 124" d="M12.5,4.377V.5h2.585V4.377" transform="translate(-11.208 -0.5)" fill="none" stroke="#a79d95" stroke-linecap="round" stroke-linejoin="round" stroke-width="2"/>
            <line id="Line_83" data-name="Line 83" x2="5.17" fill="none" stroke="#a79d95" stroke-linecap="round" stroke-linejoin="round" stroke-width="2"/>
          </g>
        </g>
        <path id="Path_125" data-name="Path 125" d="M13.5,7.867V19.219l5.17,5.17" transform="translate(3.947 2.105)" fill="none" stroke="#a79d95" stroke-linecap="round" stroke-linejoin="round" stroke-width="2"/>
        <line id="Line_84" data-name="Line 84" y1="2.585" x2="2.585" transform="translate(27.786 4.523)" fill="none" stroke="#a79d95" stroke-linecap="round" stroke-linejoin="round" stroke-width="2"/>
        <g id="Group_146" data-name="Group 146">
          <g id="Group_145" data-name="Group 145" clip-path="url(#clip-path-5)">
            <circle id="Ellipse_50" data-name="Ellipse 50" cx="16.801" cy="16.801" r="16.801" transform="translate(0.646 4.523)" fill="none" stroke="#a79d95" stroke-linecap="round" stroke-linejoin="round" stroke-width="2"/>
          </g>
        </g>
      </g>
      <path id="Path_126" data-name="Path 126" d="M1028.2-2566.946h-8.65" transform="translate(-2.281 -4.604)" fill="none" stroke="#a79d95" stroke-linecap="round" stroke-width="2"/>
      <path id="Path_128" data-name="Path 128" d="M1024.114-2566.946h-4.565" transform="translate(-0.479 4.523)" fill="none" stroke="#a79d95" stroke-linecap="round" stroke-width="2"/>
      <path id="Path_129" data-name="Path 129" d="M1026.513-2566.946h-6.965" transform="translate(-2.879 9.086)" fill="none" stroke="#a79d95" stroke-linecap="round" stroke-width="2"/>
      <path id="Path_130" data-name="Path 130" d="M1021.183-2566.946h-1.634" transform="translate(-7.819 9.086)" fill="none" stroke="#a79d95" stroke-linecap="round" stroke-width="2"/>
      <path id="Path_127" data-name="Path 127" d="M1033.925-2566.946h-14.376" transform="translate(-9.529 -0.041)" fill="none" stroke="#a79d95" stroke-linecap="round" stroke-width="2"/>
    </symbol>
    <symbol id="donation" data-name="Group 3"  viewBox="0 0 60 85">
      <g id="Group_147" data-name="Group 147" transform="translate(5 15)">
        <line id="Line_82" data-name="Line 82" y1="5.846" transform="translate(10.674 45.795)" fill="none" stroke="#a79d95" stroke-linecap="round" stroke-linejoin="round" stroke-width="2"/>
        <g id="Group_141" data-name="Group 141" transform="translate(0.974 0.974)">
          <g id="Group_150" data-name="Group 150">
            <path id="Path_121" data-name="Path 121" d="M18.323.5,12.477,6.346,31.964,16.09c1.619.811,3.9-.138,3.9-1.949V8.295Z" transform="translate(10.864 -0.5)" fill="none" stroke="#a79d95" stroke-linecap="round" stroke-linejoin="round" stroke-width="2"/>
            <path id="Path_122" data-name="Path 122" d="M14.53,23.342l-1.36.85c-2.04,1.226-4.527,1.007-5.846-.974a5.04,5.04,0,0,1-.641-1.473,7.8,7.8,0,1,0,7.848,1.6Z" transform="translate(0.428 19.655)" fill="none" stroke="#a79d95" stroke-linecap="round" stroke-linejoin="round" stroke-width="2"/>
            <path id="Path_123" data-name="Path 123" d="M7.276,36.154,1.43,26.41C.089,24.746.294,23.2,1.43,21.539l5.846-8.769c.565-.943.918-1.561,1.949-1.949L25.789,4l16.564,8.769s-2.619,5.267-7.795,13.641-12.667,9.744-12.667,9.744L14.1,41.026c-2.04,1.226-4.527,1.007-5.846-.974-1.388-2.081-1.136-5.478.974-6.821,3.332-2.122,8.142-4.872,8.769-4.872,0-1.027,1.653-4.576,3.9-6.821a9.538,9.538,0,0,1-6.821-2.923c0,1.561-5.6,5.846-6.821,5.846a4.783,4.783,0,0,1,1.949,3.9c1.294,0,1.949,2.923,1.949,2.923" transform="translate(-0.5 2.821)" fill="none" stroke="#a79d95" stroke-linecap="round" stroke-linejoin="round" stroke-width="2"/>
          </g>
        </g>
      </g>
    </symbol>
  <symbol id="first-place" data-name="Group 2"  viewBox="0 0 76 76">
      <g id="Group_151" data-name="Group 151" transform="translate(10 10)">
        <rect id="Rectangle_94" data-name="Rectangle 94" width="21.319" height="32.948" transform="translate(15.505 20.35)" fill="none" stroke="#a79d95" stroke-linecap="round" stroke-linejoin="round" stroke-width="2"/>
        <rect id="Rectangle_95" data-name="Rectangle 95" width="15.505" height="19.381" transform="translate(36.824 33.917)" fill="none" stroke="#a79d95" stroke-linecap="round" stroke-linejoin="round" stroke-width="2"/>
        <rect id="Rectangle_96" data-name="Rectangle 96" width="15.505" height="23.257" transform="translate(0 30.04)" fill="none" stroke="#a79d95" stroke-linecap="round" stroke-linejoin="round" stroke-width="2"/>
        <path id="Path_117" data-name="Path 117" d="M21.5,23.423A2.508,2.508,0,0,1,24.083,21h2.585a2.428,2.428,0,1,1,0,4.845h0a2.428,2.428,0,1,1,0,4.845H24.083A2.508,2.508,0,0,1,21.5,28.268" transform="translate(19.2 18.731)" fill="none" stroke="#a79d95" stroke-linecap="round" stroke-linejoin="round" stroke-width="2"/>
        <path id="Path_118" data-name="Path 118" d="M2.5,22.489A3.7,3.7,0,0,1,6.376,19a3.7,3.7,0,0,1,3.876,3.489,2.675,2.675,0,0,1-.913,1.985L2.5,30.629h7.752" transform="translate(1.376 16.855)" fill="none" stroke="#a79d95" stroke-linecap="round" stroke-linejoin="round" stroke-width="2"/>
        <path id="Path_119" data-name="Path 119" d="M13.5,17.876,15.438,14V27.567" transform="translate(11.695 12.164)" fill="none" stroke="#a79d95" stroke-linecap="round" stroke-linejoin="round" stroke-width="2"/>
        <line id="Line_81" data-name="Line 81" x2="3.876" transform="translate(25.195 39.731)" fill="none" stroke="#a79d95" stroke-linecap="round" stroke-linejoin="round" stroke-width="2"/>
        <path id="Path_120" data-name="Path 120" d="M18.461.5l2.176,6.7h7.039l-5.7,4.138,2.176,6.7-5.7-4.138-5.7,4.138,2.176-6.7L9.245,7.2h7.039Z" transform="translate(7.704 -0.5)" fill="none" stroke="#a79d95" stroke-linecap="round" stroke-linejoin="round" stroke-width="2"/>
      </g>
    </symbol>
  <symbol id="person" data-name="Group 5"  viewBox="0 0 65 65">
      <g id="Group_160" data-name="Group 160" transform="translate(10 10)">
        <path id="Path_136" data-name="Path 136" d="M35.825,33.827l-7.614-1.9-.868-3.472c2.121-1.9,3.228-5.134,3.454-7.982.931,0,1.363.185,1.478-.739l.739-3.695c.136-1.1-.378-2.2-1.478-2.217V8.646l.924-.924c1.2-1.271,1.75-2.424.554-4.249S29.535.518,26.6.518C25.056.518,22.18.231,19.713,2c-7.444.074-8.868,3.359-8.868,6.651a28.758,28.758,0,0,0,1.175,4.8H11.83A1.848,1.848,0,0,0,10,15.526l.463,3.695a1.848,1.848,0,0,0,1.833,1.618h.3A11.773,11.773,0,0,0,16.185,28.3l-.906,3.622-7.614,1.9A9.457,9.457,0,0,0,.5,43v.374H43.36A10.234,10.234,0,0,0,35.825,33.827Z" transform="translate(0.239 0.24)" fill="none" stroke="#a79d95" stroke-linecap="round" stroke-linejoin="round" stroke-width="2"/>
      </g>
    </symbol>
  <symbol id="instagram" data-name="Group 8"  viewBox="0 0 59 59">
    <g transform="translate(10 12)">
      <g id="Group_183" data-name="Group 183">
        <path id="Rectangle_198" data-name="Rectangle 198" d="M6.162,0h24.3a6.162,6.162,0,0,1,6.162,6.162v24.3a6.163,6.163,0,0,1-6.163,6.163H6.162A6.162,6.162,0,0,1,0,30.466V6.162A6.162,6.162,0,0,1,6.162,0Z" transform="translate(0.632 0.631)" fill="none" stroke="#a79d95" stroke-linecap="round" stroke-linejoin="round" stroke-width="2"/>
        <circle id="Ellipse_53" data-name="Ellipse 53" cx="2.21" cy="2.21" r="2.21" transform="translate(27.787 5.684)" fill="none" stroke="#a79d95" stroke-linecap="round" stroke-linejoin="round" stroke-width="2"/>
        <circle id="Ellipse_54" data-name="Ellipse 54" cx="9" cy="9" r="9" transform="translate(10 10)" fill="none" stroke="#a79d95" stroke-linecap="round" stroke-linejoin="round" stroke-width="2"/>
      </g>
    </g>
    </symbol>
  <symbol id="x-circle">
        <circle id="Ellipse_54-2" data-name="Ellipse 54" cx="17" cy="17" r="17" transform="translate(235.219 394.334)" fill="none" stroke="#a79d95" stroke-linecap="round" stroke-linejoin="round" stroke-width="2"/>
        <line id="Line_93" data-name="Line 93" y2="16" transform="translate(246.516 405.677) rotate(-45)" fill="none" stroke="#a79d95" stroke-linecap="round" stroke-width="2"/>
        <line id="Line_94" data-name="Line 94" x1="16" y1="0.131" transform="translate(246.516 416.991) rotate(-45)" fill="none" stroke="#a79d95" stroke-linecap="round" stroke-width="2"/>
      </symbol>
    <symbol id="x-square">
        <rect x="1" y="1" width="20" height="20" transform="translate(5 5)" fill="none" stroke="#f0ede9" stroke-width="2" />
        <line id="Line_93" data-name="Line 93" x1="0.131" y2="16" transform="translate(10 10) rotate(-45)" fill="none" stroke="#f0ede9" stroke-linecap="round" stroke-width="2" />
        <line id="Line_94" data-name="Line 94" x1="0.131" y2="16" transform="translate(22 10) rotate(45)" fill="none" stroke="#f0ede9" stroke-linecap="round" stroke-width="2" />
    </symbol>
    <symbol id="circle" viewBox="0 0 10 10">
        <circle cx="5" cy="5" r="3" stroke="#f0ede9" stroke-width="3" fill="#f0ede9"></circle>
    </symbol>



</svg>
